<svg xmlns="http://www.w3.org/2000/svg" aria-hidden="true" style="position:absolute;width:0;height:0;overflow:hidden"><defs><symbol id="icon-facebook" viewBox="0 0 33 32"><path fill="#fff" d="M5.505 32h10.562V20.625h-3.795v-3.75h3.795v-4.687c0-2.585 2.128-4.688 4.743-4.688h4.743v3.75h-3.795a1.888 1.888 0 0 0-1.897 1.875v3.75h5.521l-.632 3.75h-4.888V32H28.4c2.616 0 4.743-2.103 4.743-4.688V4.687c0-2.585-2.128-4.688-4.743-4.688H5.506C2.891-.001.763 2.102.763 4.687v22.625C.763 29.897 2.891 32 5.506 32zM2.659 4.688c0-1.551 1.277-2.813 2.846-2.813h22.894c1.569 0 2.846 1.262 2.846 2.813v22.625c0 1.551-1.277 2.813-2.846 2.813h-6.641v-7.625h4.598l1.265-7.5h-5.863v-1.875h5.692v-7.5h-6.641c-3.662 0-6.641 2.944-6.641 6.563v2.812h-3.795v7.5h3.795v7.625H5.504c-1.569 0-2.846-1.262-2.846-2.813V4.688z" style="fill:var(--color1, #fff)"/></symbol><symbol id="icon-instagram" viewBox="0 0 33 32"><path fill="#fff" d="M6.409 32h19.564c3.534 0 6.409-2.841 6.409-6.333V6.334c0-3.492-2.875-6.333-6.409-6.333H6.409C2.875.001 0 2.842 0 6.334v19.333C0 29.159 2.875 32 6.409 32zM2.024 6.333C2.024 3.944 3.991 2 6.409 2h19.564c2.418 0 4.385 1.944 4.385 4.333v19.333c0 2.389-1.967 4.333-4.385 4.333H6.409c-2.418 0-4.385-1.944-4.385-4.333V6.333z" style="fill:var(--color1, #fff)"/><path fill="#fff" d="M16.191 24.173c4.56 0 8.271-3.667 8.271-8.173s-3.71-8.173-8.271-8.173c-4.56 0-8.271 3.667-8.271 8.173s3.71 8.173 8.271 8.173zm0-14.346c3.444 0 6.247 2.769 6.247 6.173s-2.802 6.173-6.247 6.173S9.944 19.404 9.944 16s2.802-6.173 6.247-6.173zM24.769 9.816c1.33 0 2.333-.987 2.333-2.295 0-1.364-1.055-2.295-2.331-2.295-1.33 0-2.333.987-2.333 2.295 0 1.361 1.05 2.295 2.331 2.295zm.239-2.515c.426.372-.546.824-.546.221 0-.36.495-.267.546-.221z" style="fill:var(--color1, #fff)"/></symbol><symbol id="icon-mail" viewBox="0 0 32 32"><path fill="#fff" d="M16 0C7.161 0 0 7.164 0 16c0 8.839 7.161 16 16 16 8.835 0 16-7.161 16-16 0-8.836-7.165-16-16-16zm9.569 9.371.023.004-8.929 8.931a.814.814 0 0 1-1.121-.003L6.609 9.371H25.57zm-19.584.598c0-.007.004-.011.004-.011l6.068 6.065-6.072 6.072V9.968zm.598 12.828c-.027 0-.052-.013-.079-.017l6.155-6.153 2.279 2.279c.308.311.724.48 1.165.48.437 0 .853-.169 1.161-.48l2.204-2.205 6.096 6.097H6.583zm19.585-.602-6.096-6.096 6.096-6.096v12.192z" style="fill:var(--color1, #fff)"/></symbol><symbol id="icon-phone" viewBox="0 0 32 32"><path fill="#fff" d="M16 0C7.164 0 0 7.164 0 16s7.164 16 16 16 16-7.164 16-16S24.836 0 16 0zm4.303 24.245c-2.12-.131-6.289-2.565-8.232-4.752-1.937-2.188-3.861-6.617-3.735-8.741 0 0 2.309-3.055 3.369-2.993 1.068.064 4.057 3.435 2.927 4.437-1.12.996-2.183.935-2.245 1.992-.06 1.06.935 2.188 1.927 3.311 1.003 1.128 1.997 2.247 3.06 2.307 1.06.067 1.125-.991 2.245-1.993 1.125-.997 4.12 2.379 4.055 3.439-.059 1.056-3.371 2.995-3.371 2.995z" style="fill:var(--color1, #fff)"/></symbol></defs></svg>